<svg xmlns="http://www.w3.org/2000/svg" xmlns:xlink="http://www.w3.org/1999/xlink" width="60" height="40" viewBox="0 0 60 40">
    <defs>
        <path id="a" d="M0 0h60v40H0z"/>
    </defs>
    <g fill="none" fill-rule="evenodd">
        <mask id="b" fill="#fff">
            <use xlink:href="#a"/>
        </mask>
        <g mask="url(#b)">
            <path fill="#FFF" d="M15-1h30v42H15z"/>
            <path fill="#BF0A30" d="M0-1h15v42H0V-1zm45 0h15v42H45V-1zM19.187 18.778L18 19.165l5.525 4.632c.418 1.19-.145 1.54-.504 2.165l5.998-.727L28.862 31l1.243-.034-.271-5.717 6.003.68c-.371-.75-.702-1.148-.358-2.346L41 19.195l-.966-.334c-.79-.582.341-2.804.512-4.207 0 0-3.224 1.06-3.435.505l-.821-1.506-2.933 3.077c-.32.073-.457-.048-.532-.307l1.355-6.43-2.146 1.152c-.18.073-.359.01-.477-.19L29.493 7l-2.128 4.107c-.16.148-.32.165-.454.065l-2.043-1.095 1.227 6.38c-.098.254-.332.325-.606.188l-2.804-3.043c-.367.562-.615 1.479-1.1 1.684-.485.193-2.108-.389-3.197-.616.372 1.282 1.534 3.41.799 4.109v-.001z"/>
        </g>
    </g>
</svg>
