<svg xmlns="http://www.w3.org/2000/svg" width="673" height="230" viewBox="0 0 673 230">
    <defs>
        <linearGradient id="a" x1="100%" x2="0%" y1="100%" y2="0%">
            <stop offset="0%" stop-color="#63ADF7"/>
            <stop offset="100%" stop-color="#E8F3FD"/>
        </linearGradient>
        <linearGradient id="b" x1="0%" x2="99.966%" y1="99.992%" y2=".034%">
            <stop offset="0%" stop-color="#98CF5E"/>
            <stop offset="99.998%" stop-color="#F0F8E8"/>
        </linearGradient>
        <linearGradient id="c" x1="0%" y1="0%" y2="100%">
            <stop offset="0%" stop-color="#E582C0"/>
            <stop offset="100%" stop-color="#FBECF6"/>
        </linearGradient>
        <linearGradient id="d" x1="100%" x2="0%" y1="0%" y2="100%">
            <stop offset="0%" stop-color="#F18790"/>
            <stop offset="100%" stop-color="#FDEEEF"/>
        </linearGradient>
        <filter id="e" width="100.3%" height="101.9%" x="-.2%" y="-1%" filterUnits="objectBoundingBox">
            <feGaussianBlur in="SourceGraphic"/>
        </filter>
    </defs>
    <g fill="none" fill-rule="evenodd">
        <g fill="#848EA1" font-family="Lato-Regular, Lato" font-size="12">
            <text transform="translate(42 215)">
                <tspan x="0" y="12">Oct 8</tspan>
            </text>
            <text transform="translate(42 215)">
                <tspan x="91" y="12">Oct 12</tspan>
            </text>
            <text transform="translate(42 215)">
                <tspan x="183" y="12">Oct 16</tspan>
            </text>
            <text transform="translate(42 215)">
                <tspan x="274" y="12">Oct 20</tspan>
            </text>
            <text transform="translate(42 215)">
                <tspan x="365" y="12">Oct 24</tspan>
            </text>
            <text transform="translate(42 215)">
                <tspan x="457" y="12">Oct 30</tspan>
            </text>
            <text transform="translate(42 215)">
                <tspan x="548" y="12">Nov 3</tspan>
            </text>
        </g>
        <g fill="#E1E5EB">
            <path d="M60 203h1v8h-1zM151 203h1v8h-1zM243 203h1v8h-1zM334 203h1v8h-1zM425 203h1v8h-1zM517 203h1v8h-1zM608 203h1v8h-1z"/>
        </g>
        <path fill="#E1E5EB" d="M39 202h634v1H39z"/>
        <g fill="#848EA1" font-family="Lato-Regular, Lato" font-size="12">
            <text>
                <tspan x=".17" y="56">150K</tspan>
            </text>
            <text>
                <tspan x=".17" y="12">200K</tspan>
            </text>
            <text>
                <tspan x=".17" y="99">100K</tspan>
            </text>
            <text>
                <tspan x="7.13" y="143">50K</tspan>
            </text>
            <text>
                <tspan x="22.04" y="186">0</tspan>
            </text>
        </g>
        <path fill="#E1E5EB" d="M39 0h1v202h-1z"/>
        <g opacity=".5">
            <path fill="#555F77" d="M123.44 181.336c-1.82.327-3.595-1.149-3.966-3.296-.372-2.147.801-4.153 2.62-4.48 1.82-.327 3.596 1.149 3.967 3.296.372 2.147-.802 4.153-2.621 4.48zm-.673-9.361c-2.965 0-5.369 2.45-5.369 5.473 0 3.022 2.404 5.473 5.37 5.473 2.965 0 5.368-2.45 5.368-5.473 0-3.023-2.403-5.473-5.369-5.473zm12.538 9.36c-1.82.328-3.595-1.148-3.966-3.295-.372-2.147.801-4.153 2.621-4.48 1.82-.327 3.595 1.149 3.966 3.296.372 2.147-.801 4.153-2.621 4.48zm-.672-9.36c-2.966 0-5.37 2.45-5.37 5.473l.001.031v8.465c0 .56.447 1.014.997 1.014s.996-.454.997-1.014v-4.24a5.285 5.285 0 0 0 3.375 1.217c2.965 0 5.369-2.45 5.369-5.473 0-3.023-2.404-5.473-5.37-5.473zm-39.345 9.36c-1.82.328-3.595-1.148-3.967-3.295-.37-2.147.803-4.153 2.622-4.48 1.82-.327 3.595 1.149 3.967 3.296.37 2.147-.803 4.153-2.622 4.48zm-.673-9.36c-2.965 0-5.369 2.45-5.369 5.473l.001.031v8.465c.001.56.447 1.014.997 1.014s.996-.454.997-1.014v-4.24a5.283 5.283 0 0 0 3.374 1.217c2.966 0 5.37-2.45 5.37-5.473 0-3.023-2.404-5.473-5.37-5.473zm47.393-2.707c-.55 0-.994.453-.997 1.012v.04c.001.56.447 1.013.997 1.013s.996-.453.998-1.014v-.04a1.007 1.007 0 0 0-.998-1.01zm0 2.983c-.55 0-.994.452-.997 1.012v8.644c.001.56.447 1.014.997 1.014s.996-.454.998-1.014v-8.644a1.007 1.007 0 0 0-.998-1.012zm-26.48 7.89l.029-6.316h.96a.812.812 0 0 0 .8-.82.811.811 0 0 0-.8-.818h-.953l.009-1.937a1.007 1.007 0 0 0-.997-1.012c-.55 0-.995.453-.998 1.012l-.01 1.937h-.983a.812.812 0 0 0-.802.818c0 .452.36.818.802.82h.977l-.03 6.315.002.022h-.004c0 1.477 1.14 2.68 2.571 2.752.036.004.073.006.11.006h.11c.549-.002.994-.456.994-1.016s-.445-1.014-.994-1.017h-.085v-.005a.712.712 0 0 1-.706-.719h-.003v-.023zm-8.523 1.195c-1.82.327-3.596-1.15-3.967-3.296-.371-2.147.802-4.153 2.622-4.48 1.82-.327 3.595 1.149 3.966 3.296.372 2.147-.802 4.153-2.621 4.48zm-.673-9.361c-2.965 0-5.369 2.45-5.369 5.473v8.496c.002.56.448 1.014.998 1.014s.996-.454.997-1.014v-4.24a5.283 5.283 0 0 0 3.374 1.217c2.966 0 5.37-2.45 5.37-5.473 0-3.023-2.404-5.473-5.37-5.473zm43.762 9.36c-1.82.328-3.595-1.148-3.967-3.295-.37-2.147.803-4.153 2.622-4.48 1.82-.327 3.595 1.149 3.966 3.296.372 2.147-.802 4.153-2.62 4.48zm4.696-3.856l.001-.031c0-3.023-2.404-5.473-5.37-5.473-2.965 0-5.369 2.45-5.369 5.473 0 3.022 2.404 5.473 5.37 5.473a5.284 5.284 0 0 0 3.374-1.217v.202c.001.56.447 1.015.997 1.015s.996-.454.998-1.015v-4.419l-.001-.008zm-71.39 3.857c-1.82.327-3.595-1.15-3.967-3.296-.371-2.147.802-4.153 2.622-4.48 1.819-.327 3.595 1.149 3.966 3.296.372 2.147-.802 4.153-2.621 4.48zm-.673-9.361c-2.965 0-5.37 2.45-5.37 5.473 0 3.022 2.405 5.473 5.37 5.473a5.285 5.285 0 0 0 3.374-1.217v.202c.002.56.448 1.015.998 1.015s.996-.454.997-1.015v-4.419-.009-.03c0-3.023-2.403-5.473-5.369-5.473z"/>
            <path fill="url(#a)" d="M8.943 9h4.192c2.31 0 4.192 1.889 4.192 4.219 0 2.325-1.877 4.219-4.192 4.219-.074 0-.147-.002-.22-.006 1.188-.084 2.126-1.082 2.126-2.244 0-1.323-1.02-2.25-2.288-2.25h-3.81V9z" transform="translate(55 169)"/>
            <path fill="url(#b)" d="M8.384 9v4.219c0 2.325-1.877 4.219-4.192 4.219-2.31 0-4.192-1.89-4.192-4.22 0-.073.002-.147.006-.22.083 1.195 1.075 2.138 2.23 2.138 1.313 0 2.236-1.027 2.236-2.302V9h3.912z" transform="translate(55 169)"/>
            <path fill="url(#c)" d="M8.384 8.438H4.192C1.882 8.438 0 6.548 0 4.218 0 1.895 1.877 0 4.192 0c.074 0 .147.002.22.006C3.224.09 2.287 1.088 2.287 2.25c0 1.322 1.02 2.25 2.287 2.25h3.81v3.938z" transform="translate(55 169)"/>
            <path fill="url(#d)" d="M8.943 8.438v-4.22C8.943 1.895 10.82 0 13.135 0c2.31 0 4.192 1.889 4.192 4.219 0 .074-.002.148-.005.221-.084-1.195-1.076-2.139-2.23-2.139-1.314 0-2.236 1.027-2.236 2.303v3.833H8.943z" transform="translate(55 169)"/>
            <path fill="#228BF4" d="M63.943 178v4.219c0 2.325 1.877 4.219 4.192 4.219 2.31 0 4.192-1.89 4.192-4.22 0-.073-.002-.147-.005-.22-.084 1.195-1.076 2.138-2.23 2.138-1.314 0-2.236-1.027-2.236-2.302V178h-3.913z"/>
            <path fill="#6AB917" d="M63.41 178.027h-4.218c-2.325 0-4.219 1.877-4.219 4.192 0 2.31 1.89 4.192 4.22 4.192.073 0 .147-.002.22-.006-1.195-.083-2.139-1.075-2.139-2.23 0-1.314 1.028-2.236 2.303-2.236h3.834v-3.912z"/>
            <path fill="#DA4DA6" d="M63.384 177.438v-4.22c0-2.324-1.877-4.218-4.192-4.218-2.31 0-4.192 1.889-4.192 4.219 0 .074.002.148.006.221.083-1.195 1.075-2.139 2.23-2.139 1.313 0 2.236 1.027 2.236 2.303v3.834h3.912z"/>
            <path fill="#EA5461" d="M63.916 177.41h4.22c2.324 0 4.218-1.876 4.218-4.191 0-2.31-1.889-4.192-4.219-4.192-.074 0-.148.002-.221.005 1.195.084 2.139 1.075 2.139 2.23 0 1.314-1.027 2.236-2.303 2.236h-3.834v3.913z"/>
        </g>
        <path stroke="#5999FF" stroke-linecap="round" stroke-linejoin="round" stroke-width="2" d="M60 98.478l19.505 4.565 20.155 18.261 19.505-33.26 19.505-5.218 20.155 13.044 19.505-9.783 19.505-13.044 19.505 5.218L237.495 105 257 62.609 276.505 30l20.155 13.043 19.505-9.782L335.67 30l20.155 17.609 19.505 13.695 19.505-15.652 19.505-9.13 20.155 11.087L454 79.565l19.505.652 20.155 9.13 19.505 20.87L532.67 120l20.155-3.26 19.505 8.477 19.505-11.739 19.505-9.13 20.155 2.609L651 135" filter="url(#e)" transform="matrix(-1 0 0 1 711 0)"/>
    </g>
</svg>
