<svg xmlns="http://www.w3.org/2000/svg" xmlns:xlink="http://www.w3.org/1999/xlink" width="60" height="40" viewBox="0 0 60 40">
    <defs>
        <path id="a" d="M0 0h60v40H0z"/>
    </defs>
    <g fill="none" fill-rule="evenodd">
        <mask id="b" fill="#fff">
            <use xlink:href="#a"/>
        </mask>
        <g mask="url(#b)">
            <path fill="#BD3D44" d="M0 0h76v3H0V0zm0 6h76v3H0V6zm0 6h76v3H0v-3zm0 6h76v3H0v-3zm0 7h76v3H0v-3zm0 6h76v3H0v-3zm0 6h76v3H0v-3z"/>
            <path fill="#FFF" d="M0 3h76v3H0V3zm0 6h76v3H0V9zm0 6h76v3H0v-3zm0 7h76v3H0v-3zm0 6h76v3H0v-3zm0 6h76v3H0v-3z"/>
            <path fill="#192F5D" d="M0 0h30v21H0z"/>
            <g fill="#FFF">
                <path d="M2 1l.236.764H3l-.618.472.236.764L2 2.528 1.382 3l.236-.764L1 1.764h.764L2 1zm5 0l.236.764H8l-.618.472.236.764L7 2.528 6.382 3l.236-.764L6 1.764h.764L7 1zm5 0l.236.764H13l-.618.472.236.764L12 2.528 11.382 3l.236-.764L11 1.764h.764L12 1zm5 0l.236.764H18l-.618.472.236.764L17 2.528 16.382 3l.236-.764L16 1.764h.764L17 1zm5 0l.236.764H23l-.618.472.236.764L22 2.528 21.382 3l.236-.764L21 1.764h.764L22 1zm6 0l.236.764H29l-.618.472.236.764L28 2.528 27.382 3l.236-.764L27 1.764h.764L28 1zM5 3l.236.764H6l-.618.472.236.764L5 4.528 4.382 5l.236-.764L4 3.764h.764L5 3zm5 0l.236.764H11l-.618.472.236.764L10 4.528 9.382 5l.236-.764L9 3.764h.764L10 3zm5 0l.236.764H16l-.618.472.236.764L15 4.528 14.382 5l.236-.764L14 3.764h.764L15 3zm5 0l.236.764H21l-.618.472.236.764L20 4.528 19.382 5l.236-.764L19 3.764h.764L20 3zm5 0l.236.764H26l-.618.472.236.764L25 4.528 24.382 5l.236-.764L24 3.764h.764L25 3zM2 5l.236.764H3l-.618.472.236.764L2 6.528 1.382 7l.236-.764L1 5.764h.764L2 5zm5 0l.236.764H8l-.618.472.236.764L7 6.528 6.382 7l.236-.764L6 5.764h.764L7 5zm5 0l.236.764H13l-.618.472.236.764L12 6.528 11.382 7l.236-.764L11 5.764h.764L12 5zm5 0l.236.764H18l-.618.472.236.764L17 6.528 16.382 7l.236-.764L16 5.764h.764L17 5zm5 0l.236.764H23l-.618.472.236.764L22 6.528 21.382 7l.236-.764L21 5.764h.764L22 5zm6 0l.236.764H29l-.618.472.236.764L28 6.528 27.382 7l.236-.764L27 5.764h.764L28 5zM5 8l.236.764H6l-.618.472.236.764L5 9.528 4.382 10l.236-.764L4 8.764h.764L5 8zm5 0l.236.764H11l-.618.472.236.764L10 9.528 9.382 10l.236-.764L9 8.764h.764L10 8zm5 0l.236.764H16l-.618.472.236.764L15 9.528l-.618.472.236-.764L14 8.764h.764L15 8zm5 0l.236.764H21l-.618.472.236.764L20 9.528l-.618.472.236-.764L19 8.764h.764L20 8zm5 0l.236.764H26l-.618.472.236.764L25 9.528l-.618.472.236-.764L24 8.764h.764L25 8zM2 10l.236.764H3l-.618.472.236.764L2 11.528 1.382 12l.236-.764L1 10.764h.764L2 10zm5 0l.236.764H8l-.618.472.236.764L7 11.528 6.382 12l.236-.764L6 10.764h.764L7 10zm5 0l.236.764H13l-.618.472.236.764-.618-.472-.618.472.236-.764-.618-.472h.764L12 10zm5 0l.236.764H18l-.618.472.236.764-.618-.472-.618.472.236-.764-.618-.472h.764L17 10zm5 0l.236.764H23l-.618.472.236.764-.618-.472-.618.472.236-.764-.618-.472h.764L22 10zm6 0l.236.764H29l-.618.472.236.764-.618-.472-.618.472.236-.764-.618-.472h.764L28 10zM5 12l.236.764H6l-.618.472.236.764L5 13.528 4.382 14l.236-.764L4 12.764h.764L5 12zm5 0l.236.764H11l-.618.472.236.764-.618-.472-.618.472.236-.764L9 12.764h.764L10 12zm5 0l.236.764H16l-.618.472.236.764-.618-.472-.618.472.236-.764-.618-.472h.764L15 12zm5 0l.236.764H21l-.618.472.236.764-.618-.472-.618.472.236-.764-.618-.472h.764L20 12zm5 0l.236.764H26l-.618.472.236.764-.618-.472-.618.472.236-.764-.618-.472h.764L25 12zM2 14l.236.764H3l-.618.472.236.764L2 15.528 1.382 16l.236-.764L1 14.764h.764L2 14zm5 0l.236.764H8l-.618.472.236.764L7 15.528 6.382 16l.236-.764L6 14.764h.764L7 14zm5 0l.236.764H13l-.618.472.236.764-.618-.472-.618.472.236-.764-.618-.472h.764L12 14zm5 0l.236.764H18l-.618.472.236.764-.618-.472-.618.472.236-.764-.618-.472h.764L17 14zm5 0l.236.764H23l-.618.472.236.764-.618-.472-.618.472.236-.764-.618-.472h.764L22 14zm6 0l.236.764H29l-.618.472.236.764-.618-.472-.618.472.236-.764-.618-.472h.764L28 14zM5 16l.236.764H6l-.618.472.236.764L5 17.528 4.382 18l.236-.764L4 16.764h.764L5 16zm5 0l.236.764H11l-.618.472.236.764-.618-.472-.618.472.236-.764L9 16.764h.764L10 16zm5 0l.236.764H16l-.618.472.236.764-.618-.472-.618.472.236-.764-.618-.472h.764L15 16zm5 0l.236.764H21l-.618.472.236.764-.618-.472-.618.472.236-.764-.618-.472h.764L20 16zm5 0l.236.764H26l-.618.472.236.764-.618-.472-.618.472.236-.764-.618-.472h.764L25 16zM2 18l.236.764H3l-.618.472.236.764L2 19.528 1.382 20l.236-.764L1 18.764h.764L2 18zm5 0l.236.764H8l-.618.472.236.764L7 19.528 6.382 20l.236-.764L6 18.764h.764L7 18zm5 0l.236.764H13l-.618.472.236.764-.618-.472-.618.472.236-.764-.618-.472h.764L12 18zm5 0l.236.764H18l-.618.472.236.764-.618-.472-.618.472.236-.764-.618-.472h.764L17 18zm5 0l.236.764H23l-.618.472.236.764-.618-.472-.618.472.236-.764-.618-.472h.764L22 18zm6 0l.236.764H29l-.618.472.236.764-.618-.472-.618.472.236-.764-.618-.472h.764L28 18z"/>
            </g>
        </g>
    </g>
</svg>
